<?xml version="1.0" encoding="utf-8"?>
<!-- Generator: Adobe Illustrator 21.1.0, SVG Export Plug-In . SVG Version: 6.00 Build 0)  -->
<svg version="1.1" id="Layer_1" xmlns="http://www.w3.org/2000/svg" xmlns:xlink="http://www.w3.org/1999/xlink" x="0px" y="0px"
	 viewBox="0 0 512 512" style="enable-background:new 0 0 512 512;" xml:space="preserve">
<style type="text/css">
	.st0{fill:#FFFFFF;}
</style>
<g>
	<path class="st0" d="M389.7,0H122.3c-19.1,0-34.6,15.5-34.6,34.6v442.8c0,19.1,15.5,34.6,34.6,34.6h267.4
		c19.1,0,34.6-15.5,34.6-34.6V34.6C424.3,15.5,408.8,0,389.7,0z M104.1,86.8h303.9v338.3H104.1L104.1,86.8L104.1,86.8z M122.3,16.3
		h267.4c10.1,0,18.3,8.2,18.3,18.3v35.9H104.1V34.6C104.1,24.5,112.2,16.3,122.3,16.3L122.3,16.3z M389.7,495.7H122.3
		c-10.1,0-18.3-8.2-18.3-18.3v-35.9h303.9v35.9C407.9,487.5,399.8,495.7,389.7,495.7L389.7,495.7z"/>
	<path class="st0" d="M389.7,0H122.3c-19.1,0-34.6,15.5-34.6,34.6v442.8c0,19.1,15.5,34.6,34.6,34.6h267.4
		c19.1,0,34.6-15.5,34.6-34.6V34.6C424.3,15.5,408.8,0,389.7,0z M104.1,86.8h303.9v338.3H104.1L104.1,86.8L104.1,86.8z M122.3,16.3
		h267.4c10.1,0,18.3,8.2,18.3,18.3v35.9H104.1V34.6C104.1,24.5,112.2,16.3,122.3,16.3L122.3,16.3z M389.7,495.7H122.3
		c-10.1,0-18.3-8.2-18.3-18.3v-35.9h303.9v35.9C407.9,487.5,399.8,495.7,389.7,495.7L389.7,495.7z"/>
	<path class="st0" d="M322.6,52.1c4.8,0,8.7-3.9,8.7-8.7s-3.9-8.7-8.7-8.7c-4.8,0-8.7,3.9-8.7,8.7S317.8,52.1,322.6,52.1z
		 M279.1,460.4h-46.3c-4.5,0-8.2,3.7-8.2,8.2c0,4.5,3.7,8.2,8.2,8.2h46.3c4.5,0,8.2-3.7,8.2-8.2
		C287.3,464.1,283.6,460.4,279.1,460.4z M232.9,51.6h46.3c4.5,0,8.2-3.7,8.2-8.2s-3.7-8.2-8.2-8.2h-46.3c-4.5,0-8.2,3.7-8.2,8.2
		S228.4,51.6,232.9,51.6L232.9,51.6z M249.5,337.7c1.5,2,4,3.2,6.5,3.2c2.6,0,5-1.2,6.5-3.2L347.1,226c7.8-10.3,11.9-22.5,11.9-35.4
		c0-32.4-26.3-58.7-58.7-58.7c-17.2,0-33.3,7.5-44.3,20.2c-10.7-12.4-26.5-20.2-44.1-20.2c-32.4,0-58.7,26.3-58.7,58.7
		c0,12.9,4.1,25.1,11.9,35.4L249.5,337.7L249.5,337.7z M211.8,148.2c23.1,0,42,18.8,42,42c0,4.5,3.7,8.2,8.2,8.2
		c4.5,0,8.2-3.7,8.2-8.2c0-8.3-1.8-16.3-4.9-23.5c7.9-11.5,20.9-18.5,35-18.5c23.4,0,42.4,19,42.4,42.4c0,9.3-3,18.1-8.6,25.5
		l-78,103.1l-78-103.1c-5.6-7.4-8.6-16.2-8.6-25.5C169.4,167.2,188.4,148.2,211.8,148.2L211.8,148.2z M350.8,363.8H161.2
		c-4.5,0-8.2,3.7-8.2,8.2s3.7,8.2,8.2,8.2h189.5c4.5,0,8.2-3.7,8.2-8.2S355.3,363.8,350.8,363.8L350.8,363.8z"/>
	<path class="st0" d="M322.6,52.1c4.8,0,8.7-3.9,8.7-8.7s-3.9-8.7-8.7-8.7c-4.8,0-8.7,3.9-8.7,8.7S317.8,52.1,322.6,52.1z
		 M279.1,460.4h-46.3c-4.5,0-8.2,3.7-8.2,8.2c0,4.5,3.7,8.2,8.2,8.2h46.3c4.5,0,8.2-3.7,8.2-8.2
		C287.3,464.1,283.6,460.4,279.1,460.4z M232.9,51.6h46.3c4.5,0,8.2-3.7,8.2-8.2s-3.7-8.2-8.2-8.2h-46.3c-4.5,0-8.2,3.7-8.2,8.2
		S228.4,51.6,232.9,51.6L232.9,51.6z M249.5,337.7c1.5,2,4,3.2,6.5,3.2c2.6,0,5-1.2,6.5-3.2L347.1,226c7.8-10.3,11.9-22.5,11.9-35.4
		c0-32.4-26.3-58.7-58.7-58.7c-17.2,0-33.3,7.5-44.3,20.2c-10.7-12.4-26.5-20.2-44.1-20.2c-32.4,0-58.7,26.3-58.7,58.7
		c0,12.9,4.1,25.1,11.9,35.4L249.5,337.7L249.5,337.7z M211.8,148.2c23.1,0,42,18.8,42,42c0,4.5,3.7,8.2,8.2,8.2
		c4.5,0,8.2-3.7,8.2-8.2c0-8.3-1.8-16.3-4.9-23.5c7.9-11.5,20.9-18.5,35-18.5c23.4,0,42.4,19,42.4,42.4c0,9.3-3,18.1-8.6,25.5
		l-78,103.1l-78-103.1c-5.6-7.4-8.6-16.2-8.6-25.5C169.4,167.2,188.4,148.2,211.8,148.2L211.8,148.2z M350.8,363.8H161.2
		c-4.5,0-8.2,3.7-8.2,8.2s3.7,8.2,8.2,8.2h189.5c4.5,0,8.2-3.7,8.2-8.2S355.3,363.8,350.8,363.8L350.8,363.8z"/>
</g>
</svg>
