<?xml version="1.0" encoding="utf-8"?>
<!-- Generator: Adobe Illustrator 21.1.0, SVG Export Plug-In . SVG Version: 6.00 Build 0)  -->
<svg version="1.1" id="Layer_1" xmlns="http://www.w3.org/2000/svg" xmlns:xlink="http://www.w3.org/1999/xlink" x="0px" y="0px"
	 viewBox="0 0 512 512" style="enable-background:new 0 0 512 512;" xml:space="preserve">
<style type="text/css">
	.st0{fill:#FFFFFF;}
</style>
<path class="st0" d="M359.1,91.5h50.1V0.1h-91C310.6-0.3,218-2,194,89.5c-0.4,0.9-8,22.7-8,73.5l-83.2,0.3v95.9l83.4-0.2v253h127.3
	V259.2h84.3V163h-84.3v-30.3C313.4,113.9,321.4,91.5,359.1,91.5L359.1,91.5z M376.6,184.1v54h-84.3v252.8h-85.2V237.9l-83.4,0.2
	v-53.8l83.6-0.2l-0.2-10.7c-1.1-53.8,6.6-76.5,6.9-77.6c20.7-78.8,99.8-74.9,103.2-74.6l70.9,0v49.3h-29
	c-49.2,0-66.8,32.2-66.8,62.3v51.3L376.6,184.1L376.6,184.1z"/>
<path class="st0" d="M359.1,91.5h50.1V0.1h-91C310.6-0.3,218-2,194,89.5c-0.4,0.9-8,22.7-8,73.5l-83.2,0.3v95.9l83.4-0.2v253h127.3
	V259.2h84.3V163h-84.3v-30.3C313.4,113.9,321.4,91.5,359.1,91.5L359.1,91.5z M376.6,184.1v54h-84.3v252.8h-85.2V237.9l-83.4,0.2
	v-53.8l83.6-0.2l-0.2-10.7c-1.1-53.8,6.6-76.5,6.9-77.6c20.7-78.8,99.8-74.9,103.2-74.6l70.9,0v49.3h-29
	c-49.2,0-66.8,32.2-66.8,62.3v51.3L376.6,184.1L376.6,184.1z"/>
</svg>
