<svg fill="#0084fa" xmlns="http://www.w3.org/2000/svg" width="602.134" height="602.133">
  <path d="M581.866 202.918c-8.435-7.418-18.818-12.2-30.028-13.83l-137.254-19.943-61.38-124.372c-5.015-10.158-12.772-18.557-22.433-24.286-8.96-5.314-19.23-8.124-29.7-8.124s-20.74 2.81-29.7 8.124c-9.66 5.73-17.41 14.127-22.43 24.286l-61.38 124.373L50.3 189.09c-11.21 1.628-21.595 6.41-30.03 13.828-7.823 6.88-13.668 15.782-16.904 25.74-3.232 9.96-3.735 20.596-1.45 30.762 2.462 10.958 8.052 20.93 16.165 28.838l99.32 96.81-23.44 136.7c-2.9 16.938 1.76 34.16 12.8 47.25 11.116 13.19 27.34 20.752 44.504 20.752 9.35 0 18.707-2.32 27.06-6.713l122.76-64.54 122.766 64.54c8.35 4.392 17.71 6.713 27.054 6.713 17.167 0 33.39-7.563 44.508-20.75 11.038-13.092 15.7-30.313 12.796-47.253L484.75 385.07l99.316-96.812c8.115-7.908 13.705-17.88 16.168-28.838 2.285-10.166 1.782-20.803-1.453-30.76-3.23-9.96-9.08-18.86-16.9-25.742zm-27.71 54.663L444.472 364.5c-3.606 3.514-5.252 8.578-4.4 13.54l25.893 150.97c1.696 9.89-6.162 17.92-15.077 17.92-2.353 0-4.778-.56-7.122-1.79l-135.578-71.28c-2.23-1.172-4.675-1.758-7.12-1.758s-4.89.586-7.12 1.758L158.37 545.14c-2.343 1.23-4.77 1.79-7.123 1.79-8.916 0-16.773-8.03-15.077-17.92l25.893-150.97c.852-4.962-.794-10.026-4.4-13.54L47.976 257.58c-9.08-8.85-4.07-24.272 8.48-26.096l151.58-22.026c4.984-.724 9.292-3.854 11.52-8.37l67.79-137.356c2.807-5.686 8.264-8.53 13.72-8.53 5.46 0 10.915 2.845 13.72 8.53l67.79 137.356c2.23 4.515 6.536 7.646 11.52 8.37l151.58 22.026c12.55 1.824 17.56 17.246 8.48 26.097z"/>
  <path d="M450.887 590.27c-9.43 0-18.866-2.34-27.29-6.77l-122.53-64.42-122.53 64.42c-8.425 4.43-17.862 6.77-27.292 6.77-17.314 0-33.675-7.627-44.89-20.928-11.13-13.203-15.833-30.574-12.903-47.66l23.4-136.437-99.128-96.628c-8.182-7.975-13.82-18.033-16.304-29.086-2.304-10.25-1.797-20.98 1.466-31.02 3.264-10.04 9.16-19.02 17.05-25.96 8.508-7.48 18.982-12.3 30.29-13.95l136.992-19.9 61.265-124.14c5.057-10.24 12.88-18.71 22.625-24.49 9.04-5.36 19.4-8.19 29.96-8.19 10.56 0 20.92 2.84 29.96 8.2 9.744 5.777 17.568 14.248 22.625 24.494l61.265 124.13 136.994 19.9c11.306 1.643 21.778 6.466 30.286 13.95 7.892 6.94 13.788 15.917 17.05 25.96 3.265 10.045 3.772 20.773 1.467 31.026-2.484 11.052-8.122 21.11-16.305 29.085l-99.13 96.63 23.402 136.44c2.93 17.09-1.773 34.46-12.905 47.66-11.215 13.3-27.577 20.93-44.89 20.93zm-149.82-72.317l.232.122 122.76 64.54c8.28 4.354 17.56 6.655 26.82 6.655 17.02 0 33.1-7.5 44.12-20.573 10.94-12.978 15.56-30.052 12.68-46.845L484.2 384.894l99.51-96.994c8.044-7.84 13.586-17.726 16.027-28.59 2.266-10.077 1.768-20.623-1.44-30.496s-9.003-18.698-16.76-25.52c-8.362-7.354-18.656-12.095-29.77-13.71l-137.515-19.98-.115-.236-61.38-124.374c-4.97-10.072-12.66-18.397-22.238-24.077-8.89-5.27-19.07-8.054-29.45-8.054-10.38 0-20.57 2.785-29.45 8.054-9.58 5.68-17.27 14.005-22.24 24.077l-61.5 124.608-.26.038-137.25 19.944c-11.12 1.615-21.41 6.355-29.77 13.71-7.76 6.82-13.56 15.645-16.76 25.52-3.22 9.87-3.71 20.416-1.45 30.496 2.44 10.864 7.98 20.75 16.02 28.59l99.5 96.994-.045.26-23.44 136.698c-2.88 16.793 1.742 33.867 12.683 46.845 11.023 13.074 27.105 20.573 44.124 20.573 9.27 0 18.547-2.302 26.83-6.655l122.996-64.662zm149.82 29.477c-2.547 0-5.02-.622-7.354-1.85l-135.578-71.277c-4.23-2.225-9.542-2.225-13.775 0L158.602 545.58c-2.333 1.228-4.808 1.85-7.355 1.85-4.657 0-9.08-2.078-12.136-5.702-3.01-3.578-4.23-8.125-3.43-12.804l25.9-150.97c.83-4.8-.76-9.697-4.25-13.098L47.63 257.94c-4.34-4.23-5.87-10.435-4-16.197s6.756-9.882 12.75-10.753l151.584-22.026c4.82-.7 8.99-3.728 11.146-8.096L286.9 63.512c2.68-5.433 8.108-8.808 14.167-8.808 6.058 0 11.487 3.375 14.167 8.808l67.79 137.356c2.156 4.37 6.322 7.396 11.144 8.096l151.58 22.026c5.997.87 10.885 4.992 12.757 10.754 1.872 5.76.34 11.967-4 16.195L444.82 364.85c-3.49 3.4-5.08 8.297-4.256 13.1l25.893 150.968c.802 4.68-.418 9.226-3.435 12.804-3.055 3.624-7.478 5.702-12.135 5.702zm-149.82-75.827c2.55 0 5.094.628 7.352 1.815l135.57 71.277c2.19 1.15 4.5 1.734 6.89 1.734 4.36 0 8.5-1.95 11.37-5.35 2.82-3.35 3.96-7.61 3.21-11.99l-25.89-150.97c-.88-5.13.82-10.36 4.54-13.99L553.8 257.21c4.063-3.96 5.498-9.775 3.745-15.17-1.754-5.398-6.33-9.258-11.95-10.075L394.02 209.95c-5.145-.75-9.593-3.98-11.895-8.644L314.335 63.95c-2.51-5.09-7.595-8.25-13.27-8.25-5.674 0-10.76 3.16-13.27 8.25l-67.79 137.356c-2.302 4.663-6.75 7.895-11.896 8.642L56.52 231.98c-5.616.815-10.194 4.675-11.947 10.072s-.32 11.21 3.744 15.17L158.01 364.14c3.725 3.63 5.424 8.86 4.544 13.985l-25.893 150.97c-.75 4.38.39 8.64 3.22 11.988 2.87 3.397 7.01 5.347 11.37 5.347 2.39 0 4.71-.584 6.89-1.734l135.58-71.277c2.26-1.19 4.8-1.82 7.35-1.82z"/>
</svg>
