<svg fill="#0084fa" xmlns="http://www.w3.org/2000/svg" viewBox="0 0 602.1 602.1">
  <path d="M581.9 202.9c-8.4-7.4-18.8-12.2-30-13.8l-137.3-19.9-61.4-124.4c-5-10.2-12.8-18.6-22.4-24.3-9-5.3-19.2-8.1-29.7-8.1s-20.7 2.8-29.7 8.1c-9.7 5.7-17.4 14.1-22.4 24.3l-61.4 124.4-137.3 19.9c-11.2 1.6-21.6 6.4-30 13.8-7.8 6.9-13.7 15.8-16.9 25.7-3.2 10-3.7 20.6-1.5 30.8 2.5 11 8.1 20.9 16.2 28.8l99.3 96.8L94 521.8c-2.9 16.9 1.8 34.2 12.8 47.2 11.1 13.2 27.3 20.8 44.5 20.8 9.4 0 18.7-2.3 27.1-6.7l122.8-64.5L424 583.1c8.4 4.4 17.7 6.7 27.1 6.7 17.2 0 33.4-7.6 44.5-20.8 11-13.1 15.7-30.3 12.8-47.3L484.9 385l99.3-96.8c8.1-7.9 13.7-17.9 16.2-28.8 2.3-10.2 1.8-20.8-1.5-30.8-3.3-9.9-9.2-18.8-17-25.7z"/>
  <path d="M450.9 590.3c-9.4 0-18.9-2.3-27.3-6.8l-122.5-64.4-122.5 64.4c-8.4 4.4-17.9 6.8-27.3 6.8-17.3 0-33.7-7.6-44.9-20.9-11.1-13.2-15.8-30.6-12.9-47.7l23.4-136.4-99.1-96.6c-8.2-8-13.8-18-16.3-29.1-2.3-10.2-1.8-21 1.5-31s9.2-19 17-26c8.5-7.5 19-12.3 30.3-13.9l137-19.9 61.3-124.1c5.1-10.2 12.9-18.7 22.6-24.5 9-5.4 19.4-8.2 30-8.2s20.9 2.8 30 8.2c9.7 5.8 17.6 14.2 22.6 24.5l61.3 124.1 137 19.9c11.3 1.6 21.8 6.5 30.3 13.9 7.9 6.9 13.8 15.9 17 26 3.3 10 3.8 20.8 1.5 31-2.5 11.1-8.1 21.1-16.3 29.1l-99.1 96.6 23.4 136.4c2.9 17.1-1.8 34.5-12.9 47.7-11.4 13.3-27.8 20.9-45.1 20.9zM301.1 518l.2.1 122.8 64.5c8.3 4.4 17.6 6.7 26.8 6.7 17 0 33.1-7.5 44.1-20.6 10.9-13 15.6-30.1 12.7-46.8l-23.5-137 99.5-97c8-7.8 13.6-17.7 16-28.6 2.3-10.1 1.8-20.6-1.4-30.5s-9-18.7-16.8-25.5c-8.4-7.4-18.7-12.1-29.8-13.7l-137.5-20-.1-.2L352.8 45c-5-10.1-12.7-18.4-22.2-24.1-8.9-5.3-19.1-8.1-29.5-8.1s-20.6 2.8-29.5 8.1c-9.6 5.7-17.3 14-22.2 24.1l-61.5 124.6h-.3l-137.2 20c-11.1 1.6-21.4 6.4-29.8 13.7-7.8 6.8-13.6 15.6-16.8 25.5-3.2 9.9-3.7 20.4-1.5 30.5 2.4 10.9 8 20.8 16 28.6l99.5 97v.3L94.4 521.9c-2.9 16.8 1.7 33.9 12.7 46.8 11 13.1 27.1 20.6 44.1 20.6 9.3 0 18.5-2.3 26.8-6.7L301.1 518zm149.8 29.4c-2.5 0-5-.6-7.4-1.8L308 474.3c-4.2-2.2-9.5-2.2-13.8 0l-135.6 71.3c-2.3 1.2-4.8 1.8-7.4 1.8-4.7 0-9.1-2.1-12.1-5.7s-4.2-8.1-3.4-12.8l25.9-151c.8-4.8-.8-9.7-4.2-13.1L47.6 257.9c-4.3-4.2-5.9-10.4-4-16.2s6.8-9.9 12.8-10.8L208 209c4.8-.7 9-3.7 11.1-8.1l67.8-137.4c2.7-5.4 8.1-8.8 14.2-8.8s11.5 3.4 14.2 8.8L383 200.9c2.2 4.4 6.3 7.4 11.1 8.1l151.6 22c6 .9 10.9 5 12.8 10.8 1.9 5.8.3 12-4 16.2L444.8 364.9c-3.5 3.4-5.1 8.3-4.3 13.1l25.9 151c.8 4.7-.4 9.2-3.4 12.8-3 3.5-7.5 5.6-12.1 5.6zm-149.8-75.8c2.5 0 5.1.6 7.4 1.8L444 544.7c2.2 1.2 4.5 1.7 6.9 1.7 4.4 0 8.5-2 11.4-5.3 2.8-3.3 4-7.6 3.2-12l-25.9-151c-.9-5.1.8-10.4 4.5-14l109.7-106.9c4.1-4 5.5-9.8 3.7-15.2-1.8-5.4-6.3-9.3-12-10.1l-151.6-22c-5.1-.8-9.6-4-11.9-8.6L314.3 64c-2.5-5.1-7.6-8.2-13.3-8.2-5.7 0-10.8 3.2-13.3 8.2L220 201.3c-2.3 4.7-6.8 7.9-11.9 8.6L56.5 232c-5.6.8-10.2 4.7-11.9 10.1s-.3 11.2 3.7 15.2L158 364.1c3.7 3.6 5.4 8.9 4.5 14l-25.9 151c-.8 4.4.4 8.6 3.2 12 2.9 3.4 7 5.3 11.4 5.3 2.4 0 4.7-.6 6.9-1.7l135.6-71.3c2.3-1.2 4.8-1.8 7.4-1.8z"/>
</svg>
