<?xml version="1.0" encoding="utf-8"?>
<!-- Generator: Adobe Illustrator 21.1.0, SVG Export Plug-In . SVG Version: 6.00 Build 0)  -->
<svg version="1.1" xmlns="http://www.w3.org/2000/svg" xmlns:xlink="http://www.w3.org/1999/xlink" x="0px" y="0px"
	 viewBox="0 0 233.8 233.8" style="enable-background:new 0 0 233.8 233.8;" xml:space="preserve">
<style type="text/css">
	.st0{fill:#FFFFFF;}
</style>
<g id="Layer_2">
</g>
<g id="Layer_1">
	<g>
		<path class="st0" d="M182.7,66.1c-5.4,0-9.9-4.4-9.9-9.9c0-5.4,4.4-9.9,9.9-9.9c5.4,0,9.9,4.4,9.9,9.9
			C192.6,61.7,188.1,66.1,182.7,66.1z"/>
		<path class="st0" d="M115.9,179.7c-31.9,0-57.8-25.9-57.8-57.8c0-31.9,25.9-57.8,57.8-57.8c31.9,0,57.8,25.9,57.8,57.8
			C173.7,153.8,147.8,179.7,115.9,179.7z M115.9,80.6c-22.7,0-41.3,18.5-41.3,41.2c0,22.8,18.5,41.3,41.3,41.3
			c22.7,0,41.3-18.5,41.3-41.3C157.1,99.1,138.6,80.6,115.9,80.6z"/>
		<path class="st0" d="M56.5,233.8C25.3,233.8,0,208.4,0,177.3V56.5C0,25.3,25.3,0,56.5,0h120.8c31.2,0,56.5,25.3,56.5,56.5v120.8
			c0,31.2-25.3,56.5-56.5,56.5H56.5z M56.5,16.5c-22,0-40,17.9-40,40v120.8c0,22,17.9,40,40,40h120.8c22,0,40-17.9,40-40V56.5
			c0-22-17.9-40-40-40H56.5z"/>
	</g>
</g>
</svg>
