<?xml version="1.0" encoding="utf-8"?>
<!-- Generator: Adobe Illustrator 21.1.0, SVG Export Plug-In . SVG Version: 6.00 Build 0)  -->
<svg fill="#bc0087" version="1.1" id="Layer_1" xmlns="http://www.w3.org/2000/svg" xmlns:xlink="http://www.w3.org/1999/xlink" x="0px" y="0px"
	 viewBox="0 0 979.5 979.5" style="enable-background:new 0 0 979.5 979.5;" xml:space="preserve">
<path d="M964.6,227.5c-15.6-44.6-43.1-84.8-79.4-116.3c-36.3-31.5-80-53-126.4-62.2c-17.5-3.4-35.4-5.2-53.4-5.2
	c-52.4,0-103.3,14.8-147.3,42.8c-26.5,16.9-49.7,38-68.9,62.5c-19.2-24.4-42.4-45.5-68.9-62.4c-44-28-94.9-42.8-147.2-42.8
	c0,0,0,0,0,0c-43.6,0-87.4,10.8-126.5,31.1c-39.2,20.4-73.1,50-98.2,85.7C22.8,197.3,7.1,238.3,1.9,282.5
	c-4.5,38.7-1,80.2,10.4,123.4C35,491.5,85.1,569.6,123.2,620c82.8,109.7,196.6,209.2,348,304.3l18.1,11.4l18.1-11.4
	c186.2-117,316.2-240.5,397.4-377.6c46.7-78.8,71-149.1,74.3-214.7C981,295.4,976.1,260.3,964.6,227.5L964.6,227.5z"/>
</svg>
