<svg fill="#fff" xmlns="http://www.w3.org/2000/svg" viewBox="0 0 515.667 515.667">
  <path d="M446.533 119.425l-54.117-.283-51.85-77.35c-3.117-4.817-8.5-7.933-14.167-7.933H186.714c-5.667 0-10.767 3.114-13.883 7.65l-53.55 77.63-50.15.283C31.167 119.423 0 150.593 0 188.558v223.55c0 37.967 31.167 69.7 69.133 69.7h377.4c37.967 0 69.133-31.733 69.133-69.7v-223.55c0-37.966-31.166-69.133-69.133-69.133zm35.134 292.683c0 19.267-15.867 35.7-35.133 35.7h-377.4c-19.267 0-35.133-16.433-35.133-35.7v-223.55c0-19.267 15.87-35.133 35.136-35.133h59.217c5.668 0 10.768-3.117 13.884-7.65l53.55-77.633h121.55L368.9 145.21c3.118 4.532 8.5 7.65 13.884 7.65l63.467.566c19.27 0 35.136 15.867 35.136 35.133v223.55h.283z"/>
  <path d="M259.25 160.225c-66.583 0-120.417 54.117-120.417 120.417S192.95 401.058 259.25 401.058 379.667 346.94 379.667 280.64 325.55 160.226 259.25 160.226zm0 206.833c-47.6 0-86.417-38.817-86.417-86.417s38.817-86.414 86.417-86.414 86.417 38.817 86.417 86.417-38.817 86.418-86.417 86.418z"/>
  <circle cx="420.467" cy="210.092" r="6.517"/>
  <path d="M420.467 186.575c-13.033 0-23.517 10.483-23.517 23.517s10.483 23.517 23.517 23.517 23.517-10.486 23.517-23.52-10.484-23.517-23.517-23.517zm0 34c-5.95 0-10.483-4.817-10.483-10.483s4.817-10.483 10.483-10.483c5.667 0 10.483 4.814 10.483 10.48s-4.533 10.483-10.483 10.483z"/>
</svg>
